<svg width="28" height="28" viewBox="0 0 28 28" fill="none" xmlns="http://www.w3.org/2000/svg">
<circle cx="14" cy="14" r="13.5" fill="white" stroke="#E7E7E9"/>
<path d="M16.5515 18.0394C16.5985 18.0863 16.625 18.1502 16.625 18.2169C16.625 18.2835 16.5985 18.3474 16.5515 18.3943L16.0247 18.9243C15.9796 18.9726 15.9166 19 15.8507 19C15.7848 19 15.7219 18.9726 15.6768 18.9243L11.1093 14.33C11.0394 14.2597 11.0001 14.1644 11 14.065L11 13.935C11.0001 13.8356 11.0394 13.7403 11.1093 13.6701L15.6768 9.07575C15.7219 9.02742 15.7848 9 15.8507 9C15.9166 9 15.9796 9.02742 16.0247 9.07575L16.5515 9.60567C16.5985 9.6526 16.625 9.71649 16.625 9.78314C16.625 9.84979 16.5985 9.91368 16.5515 9.96061L12.5357 14L16.5515 18.0394Z" fill="#898989"/>
</svg>
